<mxfile host="app.diagrams.net" agent="Mozilla/5.0 (Windows NT 10.0; Win64; x64) AppleWebKit/537.36 (KHTML, like Gecko) Chrome/132.0.0.0 Safari/537.36 OPR/117.0.0.0" version="26.2.12">
  <diagram name="Page-1" id="2YBvvXClWsGukQMizWep">
    <mxGraphModel dx="1049" dy="673" grid="0" gridSize="10" guides="1" tooltips="1" connect="1" arrows="1" fold="1" page="1" pageScale="1" pageWidth="850" pageHeight="1100" background="light-dark(#FFFFFF,#FFFFFF)" math="0" shadow="0">
      <root>
        <mxCell id="0" />
        <mxCell id="1" parent="0" />
        <mxCell id="-ynEkc6PMeDTSdzCZtb5-13" value="alt" style="shape=umlFrame;whiteSpace=wrap;html=1;pointerEvents=0;labelBorderColor=none;fillColor=light-dark(#FFFFFF,#FFFFFF);fontColor=light-dark(#000000,#000000);strokeColor=light-dark(#000000,#000000);" vertex="1" parent="1">
          <mxGeometry x="144" y="438" width="556" height="236" as="geometry" />
        </mxCell>
        <mxCell id="aM9ryv3xv72pqoxQDRHE-1" value="&lt;b&gt;:Système de Gestion&lt;/b&gt;" style="shape=umlLifeline;perimeter=lifelinePerimeter;whiteSpace=wrap;html=1;container=0;dropTarget=0;collapsible=0;recursiveResize=0;outlineConnect=0;portConstraint=eastwest;newEdgeStyle={&quot;edgeStyle&quot;:&quot;elbowEdgeStyle&quot;,&quot;elbow&quot;:&quot;vertical&quot;,&quot;curved&quot;:0,&quot;rounded&quot;:0};fillColor=light-dark(#FFFFFF, #ffffff);strokeColor=light-dark(#000000,#000000);labelBackgroundColor=none;fontColor=light-dark(#000000,#000000);" parent="1" vertex="1">
          <mxGeometry x="336" y="87" width="100" height="587" as="geometry" />
        </mxCell>
        <mxCell id="-ynEkc6PMeDTSdzCZtb5-23" value="" style="html=1;points=[[0,0,0,0,5],[0,1,0,0,-5],[1,0,0,0,5],[1,1,0,0,-5]];perimeter=orthogonalPerimeter;outlineConnect=0;targetShapes=umlLifeline;portConstraint=eastwest;newEdgeStyle={&quot;curved&quot;:0,&quot;rounded&quot;:0};fillColor=light-dark(#FFFFFF,#FFFFFF);strokeColor=light-dark(#000000,#000000);" vertex="1" parent="aM9ryv3xv72pqoxQDRHE-1">
          <mxGeometry x="45" y="70" width="10" height="34" as="geometry" />
        </mxCell>
        <mxCell id="-ynEkc6PMeDTSdzCZtb5-24" value="" style="html=1;points=[[0,0,0,0,5],[0,1,0,0,-5],[1,0,0,0,5],[1,1,0,0,-5]];perimeter=orthogonalPerimeter;outlineConnect=0;targetShapes=umlLifeline;portConstraint=eastwest;newEdgeStyle={&quot;curved&quot;:0,&quot;rounded&quot;:0};fillColor=light-dark(#FFFFFF,#FFFFFF);strokeColor=light-dark(#000000,#000000);" vertex="1" parent="aM9ryv3xv72pqoxQDRHE-1">
          <mxGeometry x="44.99999999999997" y="148" width="10" height="34" as="geometry" />
        </mxCell>
        <mxCell id="-ynEkc6PMeDTSdzCZtb5-32" value="" style="html=1;points=[[0,0,0,0,5],[0,1,0,0,-5],[1,0,0,0,5],[1,1,0,0,-5]];perimeter=orthogonalPerimeter;outlineConnect=0;targetShapes=umlLifeline;portConstraint=eastwest;newEdgeStyle={&quot;curved&quot;:0,&quot;rounded&quot;:0};fillColor=light-dark(#FFFFFF,#FFFFFF);strokeColor=light-dark(#000000,#000000);" vertex="1" parent="aM9ryv3xv72pqoxQDRHE-1">
          <mxGeometry x="45" y="222" width="10" height="34" as="geometry" />
        </mxCell>
        <mxCell id="-ynEkc6PMeDTSdzCZtb5-68" value="" style="html=1;points=[[0,0,0,0,5],[0,1,0,0,-5],[1,0,0,0,5],[1,1,0,0,-5]];perimeter=orthogonalPerimeter;outlineConnect=0;targetShapes=umlLifeline;portConstraint=eastwest;newEdgeStyle={&quot;curved&quot;:0,&quot;rounded&quot;:0};fillColor=light-dark(#FFFFFF,#FFFFFF);strokeColor=light-dark(#000000,#000000);" vertex="1" parent="aM9ryv3xv72pqoxQDRHE-1">
          <mxGeometry x="45" y="390" width="10" height="19" as="geometry" />
        </mxCell>
        <mxCell id="-ynEkc6PMeDTSdzCZtb5-70" value="" style="html=1;points=[[0,0,0,0,5],[0,1,0,0,-5],[1,0,0,0,5],[1,1,0,0,-5]];perimeter=orthogonalPerimeter;outlineConnect=0;targetShapes=umlLifeline;portConstraint=eastwest;newEdgeStyle={&quot;curved&quot;:0,&quot;rounded&quot;:0};fillColor=light-dark(#FFFFFF,#FFFFFF);strokeColor=light-dark(#000000,#000000);" vertex="1" parent="aM9ryv3xv72pqoxQDRHE-1">
          <mxGeometry x="45" y="454" width="10" height="19" as="geometry" />
        </mxCell>
        <mxCell id="-ynEkc6PMeDTSdzCZtb5-79" value="" style="html=1;points=[[0,0,0,0,5],[0,1,0,0,-5],[1,0,0,0,5],[1,1,0,0,-5]];perimeter=orthogonalPerimeter;outlineConnect=0;targetShapes=umlLifeline;portConstraint=eastwest;newEdgeStyle={&quot;curved&quot;:0,&quot;rounded&quot;:0};fillColor=light-dark(#FFFFFF,#FFFFFF);strokeColor=light-dark(#000000,#000000);" vertex="1" parent="aM9ryv3xv72pqoxQDRHE-1">
          <mxGeometry x="45" y="482" width="10" height="43" as="geometry" />
        </mxCell>
        <mxCell id="-ynEkc6PMeDTSdzCZtb5-2" value="" style="shape=umlLifeline;perimeter=lifelinePerimeter;whiteSpace=wrap;html=1;container=1;dropTarget=0;collapsible=0;recursiveResize=0;outlineConnect=0;portConstraint=eastwest;newEdgeStyle={&quot;curved&quot;:0,&quot;rounded&quot;:0};participant=umlActor;fillColor=light-dark(#FFFFFF,#000000);strokeColor=light-dark(#000000,#000000);" vertex="1" parent="1">
          <mxGeometry x="227" y="85" width="20" height="590" as="geometry" />
        </mxCell>
        <mxCell id="-ynEkc6PMeDTSdzCZtb5-15" value="" style="html=1;points=[[0,0,0,0,5],[0,1,0,0,-5],[1,0,0,0,5],[1,1,0,0,-5]];perimeter=orthogonalPerimeter;outlineConnect=0;targetShapes=umlLifeline;portConstraint=eastwest;newEdgeStyle={&quot;curved&quot;:0,&quot;rounded&quot;:0};fillColor=light-dark(#FFFFFF,#FFFFFF);strokeColor=light-dark(#000000,#000000);" vertex="1" parent="-ynEkc6PMeDTSdzCZtb5-2">
          <mxGeometry x="5" y="64" width="10" height="60" as="geometry" />
        </mxCell>
        <mxCell id="-ynEkc6PMeDTSdzCZtb5-29" value="" style="html=1;points=[[0,0,0,0,5],[0,1,0,0,-5],[1,0,0,0,5],[1,1,0,0,-5]];perimeter=orthogonalPerimeter;outlineConnect=0;targetShapes=umlLifeline;portConstraint=eastwest;newEdgeStyle={&quot;curved&quot;:0,&quot;rounded&quot;:0};fillColor=light-dark(#FFFFFF,#FFFFFF);strokeColor=light-dark(#000000,#000000);" vertex="1" parent="-ynEkc6PMeDTSdzCZtb5-2">
          <mxGeometry x="5" y="135" width="10" height="60" as="geometry" />
        </mxCell>
        <mxCell id="-ynEkc6PMeDTSdzCZtb5-37" value="" style="html=1;points=[[0,0,0,0,5],[0,1,0,0,-5],[1,0,0,0,5],[1,1,0,0,-5]];perimeter=orthogonalPerimeter;outlineConnect=0;targetShapes=umlLifeline;portConstraint=eastwest;newEdgeStyle={&quot;curved&quot;:0,&quot;rounded&quot;:0};fillColor=light-dark(#FFFFFF,#FFFFFF);strokeColor=light-dark(#000000,#000000);" vertex="1" parent="-ynEkc6PMeDTSdzCZtb5-2">
          <mxGeometry x="5" y="208" width="10" height="60" as="geometry" />
        </mxCell>
        <mxCell id="-ynEkc6PMeDTSdzCZtb5-67" value="" style="html=1;points=[[0,0,0,0,5],[0,1,0,0,-5],[1,0,0,0,5],[1,1,0,0,-5]];perimeter=orthogonalPerimeter;outlineConnect=0;targetShapes=umlLifeline;portConstraint=eastwest;newEdgeStyle={&quot;curved&quot;:0,&quot;rounded&quot;:0};fillColor=light-dark(#FFFFFF,#FFFFFF);strokeColor=light-dark(#000000,#000000);" vertex="1" parent="-ynEkc6PMeDTSdzCZtb5-2">
          <mxGeometry x="5" y="390" width="10" height="19" as="geometry" />
        </mxCell>
        <mxCell id="-ynEkc6PMeDTSdzCZtb5-69" value="" style="html=1;points=[[0,0,0,0,5],[0,1,0,0,-5],[1,0,0,0,5],[1,1,0,0,-5]];perimeter=orthogonalPerimeter;outlineConnect=0;targetShapes=umlLifeline;portConstraint=eastwest;newEdgeStyle={&quot;curved&quot;:0,&quot;rounded&quot;:0};fillColor=light-dark(#FFFFFF,#FFFFFF);strokeColor=light-dark(#000000,#000000);" vertex="1" parent="-ynEkc6PMeDTSdzCZtb5-2">
          <mxGeometry x="5" y="457" width="10" height="26" as="geometry" />
        </mxCell>
        <mxCell id="-ynEkc6PMeDTSdzCZtb5-78" value="" style="html=1;points=[[0,0,0,0,5],[0,1,0,0,-5],[1,0,0,0,5],[1,1,0,0,-5]];perimeter=orthogonalPerimeter;outlineConnect=0;targetShapes=umlLifeline;portConstraint=eastwest;newEdgeStyle={&quot;curved&quot;:0,&quot;rounded&quot;:0};fillColor=light-dark(#FFFFFF,#FFFFFF);strokeColor=light-dark(#000000,#000000);" vertex="1" parent="-ynEkc6PMeDTSdzCZtb5-2">
          <mxGeometry x="5" y="489" width="10" height="54" as="geometry" />
        </mxCell>
        <mxCell id="-ynEkc6PMeDTSdzCZtb5-12" value="" style="endArrow=block;endFill=1;endSize=12;html=1;rounded=0;strokeColor=light-dark(#000000,#000000);exitX=1;exitY=0;exitDx=0;exitDy=5;exitPerimeter=0;" edge="1" parent="1" source="-ynEkc6PMeDTSdzCZtb5-15">
          <mxGeometry width="160" relative="1" as="geometry">
            <mxPoint x="252" y="156" as="sourcePoint" />
            <mxPoint x="379" y="154" as="targetPoint" />
          </mxGeometry>
        </mxCell>
        <mxCell id="-ynEkc6PMeDTSdzCZtb5-14" value="&lt;b&gt;:Data&amp;nbsp;&lt;/b&gt;" style="shape=umlLifeline;perimeter=lifelinePerimeter;whiteSpace=wrap;html=1;container=1;dropTarget=0;collapsible=0;recursiveResize=0;outlineConnect=0;portConstraint=eastwest;newEdgeStyle={&quot;curved&quot;:0,&quot;rounded&quot;:0};fillColor=light-dark(#FFFFFF,#FFFFFF);fontColor=light-dark(#000000,#000000);strokeColor=light-dark(#000000,#000000);" vertex="1" parent="1">
          <mxGeometry x="454" y="87" width="100" height="586" as="geometry" />
        </mxCell>
        <mxCell id="-ynEkc6PMeDTSdzCZtb5-16" value="&lt;b&gt;:Système de paiement&lt;/b&gt;" style="shape=umlLifeline;perimeter=lifelinePerimeter;whiteSpace=wrap;html=1;container=1;dropTarget=0;collapsible=0;recursiveResize=0;outlineConnect=0;portConstraint=eastwest;newEdgeStyle={&quot;curved&quot;:0,&quot;rounded&quot;:0};fillColor=light-dark(#FFFFFF,#FFFFFF);fontColor=light-dark(#000000,#000000);strokeColor=light-dark(#000000,#000000);" vertex="1" parent="1">
          <mxGeometry x="587" y="87" width="100" height="587" as="geometry" />
        </mxCell>
        <mxCell id="-ynEkc6PMeDTSdzCZtb5-18" value="&lt;font style=&quot;color: light-dark(rgb(0, 0, 0), rgb(0, 0, 0)); font-size: 9px;&quot;&gt;&lt;b style=&quot;&quot;&gt;Consulter les offres ()&lt;/b&gt;&lt;/font&gt;" style="text;html=1;align=center;verticalAlign=middle;whiteSpace=wrap;rounded=0;" vertex="1" parent="1">
          <mxGeometry x="241" y="135" width="129" height="22" as="geometry" />
        </mxCell>
        <mxCell id="-ynEkc6PMeDTSdzCZtb5-21" value="" style="endArrow=open;html=1;rounded=0;strokeColor=light-dark(#000000,#000000);dashed=1;strokeWidth=1;endFill=0;" edge="1" parent="1">
          <mxGeometry width="50" height="50" relative="1" as="geometry">
            <mxPoint x="378.5" y="191" as="sourcePoint" />
            <mxPoint x="242.44736842105272" y="191" as="targetPoint" />
          </mxGeometry>
        </mxCell>
        <mxCell id="-ynEkc6PMeDTSdzCZtb5-22" value="&lt;font style=&quot;color: light-dark(rgb(0, 0, 0), rgb(0, 0, 0)); font-size: 9px;&quot;&gt;&lt;b style=&quot;&quot;&gt;Liste offre ()&lt;/b&gt;&lt;/font&gt;" style="text;html=1;align=center;verticalAlign=middle;whiteSpace=wrap;rounded=0;" vertex="1" parent="1">
          <mxGeometry x="245" y="167" width="118" height="22" as="geometry" />
        </mxCell>
        <mxCell id="-ynEkc6PMeDTSdzCZtb5-25" value="" style="endArrow=block;endFill=1;endSize=12;html=1;rounded=0;strokeColor=light-dark(#000000,#000000);" edge="1" parent="1" target="-ynEkc6PMeDTSdzCZtb5-24">
          <mxGeometry width="160" relative="1" as="geometry">
            <mxPoint x="242" y="237" as="sourcePoint" />
            <mxPoint x="371.28" y="237" as="targetPoint" />
          </mxGeometry>
        </mxCell>
        <mxCell id="-ynEkc6PMeDTSdzCZtb5-26" value="&lt;font style=&quot;color: light-dark(rgb(0, 0, 0), rgb(0, 0, 0)); font-size: 9px;&quot;&gt;&lt;b style=&quot;&quot;&gt;Sélection de la visite&lt;/b&gt;&lt;/font&gt;" style="text;html=1;align=center;verticalAlign=middle;whiteSpace=wrap;rounded=0;" vertex="1" parent="1">
          <mxGeometry x="241.92000000000002" y="217" width="114.72" height="17" as="geometry" />
        </mxCell>
        <mxCell id="-ynEkc6PMeDTSdzCZtb5-27" value="" style="endArrow=open;html=1;rounded=0;strokeColor=light-dark(#000000,#000000);dashed=1;strokeWidth=1;endFill=0;entryX=0;entryY=1;entryDx=0;entryDy=0;" edge="1" parent="1" target="-ynEkc6PMeDTSdzCZtb5-28">
          <mxGeometry width="50" height="50" relative="1" as="geometry">
            <mxPoint x="381" y="267" as="sourcePoint" />
            <mxPoint x="234.72736842105272" y="272" as="targetPoint" />
          </mxGeometry>
        </mxCell>
        <mxCell id="-ynEkc6PMeDTSdzCZtb5-28" value="&lt;font style=&quot;color: light-dark(rgb(0, 0, 0), rgb(0, 0, 0)); font-size: 9px;&quot;&gt;&lt;b style=&quot;&quot;&gt;Détails de la visite&lt;/b&gt;&lt;/font&gt;" style="text;html=1;align=center;verticalAlign=middle;whiteSpace=wrap;rounded=0;" vertex="1" parent="1">
          <mxGeometry x="240.28" y="245" width="118" height="22" as="geometry" />
        </mxCell>
        <mxCell id="-ynEkc6PMeDTSdzCZtb5-33" value="" style="endArrow=block;endFill=1;endSize=12;html=1;rounded=0;strokeColor=light-dark(#000000,#000000);" edge="1" parent="1">
          <mxGeometry width="160" relative="1" as="geometry">
            <mxPoint x="243" y="308" as="sourcePoint" />
            <mxPoint x="384.5" y="308" as="targetPoint" />
          </mxGeometry>
        </mxCell>
        <mxCell id="-ynEkc6PMeDTSdzCZtb5-34" value="&lt;font style=&quot;color: light-dark(rgb(0, 0, 0), rgb(0, 0, 0)); font-size: 9px;&quot;&gt;&lt;b style=&quot;&quot;&gt;Demande réservations&lt;/b&gt;&lt;/font&gt;" style="text;html=1;align=center;verticalAlign=middle;whiteSpace=wrap;rounded=0;" vertex="1" parent="1">
          <mxGeometry x="237.28" y="287" width="129" height="18" as="geometry" />
        </mxCell>
        <mxCell id="-ynEkc6PMeDTSdzCZtb5-35" value="" style="endArrow=open;html=1;rounded=0;strokeColor=light-dark(#000000,#000000);dashed=1;strokeWidth=1;endFill=0;entryX=0;entryY=1;entryDx=0;entryDy=0;exitX=0;exitY=1;exitDx=0;exitDy=-5;exitPerimeter=0;" edge="1" parent="1" target="-ynEkc6PMeDTSdzCZtb5-36" source="-ynEkc6PMeDTSdzCZtb5-32">
          <mxGeometry width="50" height="50" relative="1" as="geometry">
            <mxPoint x="373.78" y="343" as="sourcePoint" />
            <mxPoint x="237.72736842105272" y="343" as="targetPoint" />
          </mxGeometry>
        </mxCell>
        <mxCell id="-ynEkc6PMeDTSdzCZtb5-36" value="&lt;font style=&quot;color: light-dark(rgb(0, 0, 0), rgb(0, 0, 0)); font-size: 9px;&quot;&gt;&lt;b style=&quot;&quot;&gt;Demande authentification&lt;/b&gt;&lt;/font&gt;" style="text;html=1;align=center;verticalAlign=middle;whiteSpace=wrap;rounded=0;" vertex="1" parent="1">
          <mxGeometry x="240.28" y="317" width="130.72" height="22" as="geometry" />
        </mxCell>
        <mxCell id="-ynEkc6PMeDTSdzCZtb5-38" value="" style="html=1;points=[[0,0,0,0,5],[0,1,0,0,-5],[1,0,0,0,5],[1,1,0,0,-5]];perimeter=orthogonalPerimeter;outlineConnect=0;targetShapes=umlLifeline;portConstraint=eastwest;newEdgeStyle={&quot;curved&quot;:0,&quot;rounded&quot;:0};fillColor=light-dark(#FFFFFF,#FFFFFF);strokeColor=light-dark(#000000,#000000);" vertex="1" parent="1">
          <mxGeometry x="382" y="388" width="10" height="34" as="geometry" />
        </mxCell>
        <mxCell id="-ynEkc6PMeDTSdzCZtb5-39" value="" style="html=1;points=[[0,0,0,0,5],[0,1,0,0,-5],[1,0,0,0,5],[1,1,0,0,-5]];perimeter=orthogonalPerimeter;outlineConnect=0;targetShapes=umlLifeline;portConstraint=eastwest;newEdgeStyle={&quot;curved&quot;:0,&quot;rounded&quot;:0};fillColor=light-dark(#FFFFFF,#FFFFFF);strokeColor=light-dark(#000000,#000000);" vertex="1" parent="1">
          <mxGeometry x="233" y="372" width="10" height="60" as="geometry" />
        </mxCell>
        <mxCell id="-ynEkc6PMeDTSdzCZtb5-40" value="" style="endArrow=block;endFill=1;endSize=12;html=1;rounded=0;strokeColor=light-dark(#000000,#000000);" edge="1" parent="1">
          <mxGeometry width="160" relative="1" as="geometry">
            <mxPoint x="245" y="387" as="sourcePoint" />
            <mxPoint x="387" y="387" as="targetPoint" />
          </mxGeometry>
        </mxCell>
        <mxCell id="-ynEkc6PMeDTSdzCZtb5-44" value="" style="endArrow=block;endFill=1;endSize=12;html=1;rounded=0;strokeColor=light-dark(#000000,#000000);" edge="1" parent="1">
          <mxGeometry width="160" relative="1" as="geometry">
            <mxPoint x="391" y="388" as="sourcePoint" />
            <mxPoint x="507.28" y="388" as="targetPoint" />
          </mxGeometry>
        </mxCell>
        <mxCell id="-ynEkc6PMeDTSdzCZtb5-45" value="&lt;font style=&quot;color: light-dark(rgb(0, 0, 0), rgb(0, 0, 0)); font-size: 9px;&quot;&gt;getVisiteur(email,mdp)&lt;/font&gt;" style="text;html=1;align=center;verticalAlign=middle;whiteSpace=wrap;rounded=0;" vertex="1" parent="1">
          <mxGeometry x="383.28" y="369" width="129" height="18" as="geometry" />
        </mxCell>
        <mxCell id="-ynEkc6PMeDTSdzCZtb5-46" value="" style="html=1;verticalAlign=bottom;endArrow=open;dashed=1;endSize=8;curved=0;rounded=0;strokeColor=light-dark(#000000,#000000);" edge="1" parent="1" source="-ynEkc6PMeDTSdzCZtb5-14">
          <mxGeometry relative="1" as="geometry">
            <mxPoint x="472" y="414" as="sourcePoint" />
            <mxPoint x="392" y="414" as="targetPoint" />
          </mxGeometry>
        </mxCell>
        <mxCell id="-ynEkc6PMeDTSdzCZtb5-47" value="&lt;font style=&quot;color: light-dark(rgb(0, 0, 0), rgb(0, 0, 0));&quot;&gt;&lt;span style=&quot;font-size: 10px;&quot;&gt;réponse&lt;/span&gt;&lt;/font&gt;" style="text;html=1;align=center;verticalAlign=middle;whiteSpace=wrap;rounded=0;" vertex="1" parent="1">
          <mxGeometry x="417.78" y="393.5" width="60" height="17" as="geometry" />
        </mxCell>
        <mxCell id="-ynEkc6PMeDTSdzCZtb5-48" value="&lt;font style=&quot;color: light-dark(rgb(0, 0, 0), rgb(0, 0, 0)); font-size: 10px;&quot;&gt;[réponse = null]&amp;nbsp;&lt;/font&gt;" style="text;html=1;align=center;verticalAlign=middle;whiteSpace=wrap;rounded=0;" vertex="1" parent="1">
          <mxGeometry x="217" y="433" width="122" height="30" as="geometry" />
        </mxCell>
        <mxCell id="-ynEkc6PMeDTSdzCZtb5-58" value="" style="endArrow=block;dashed=1;endFill=0;endSize=12;html=1;rounded=0;" edge="1" parent="1" source="aM9ryv3xv72pqoxQDRHE-1" target="-ynEkc6PMeDTSdzCZtb5-2">
          <mxGeometry width="160" relative="1" as="geometry">
            <mxPoint x="270" y="471" as="sourcePoint" />
            <mxPoint x="430" y="471" as="targetPoint" />
          </mxGeometry>
        </mxCell>
        <mxCell id="-ynEkc6PMeDTSdzCZtb5-59" value="" style="endArrow=open;endFill=1;endSize=12;html=1;rounded=0;" edge="1" parent="1" source="-ynEkc6PMeDTSdzCZtb5-41" target="-ynEkc6PMeDTSdzCZtb5-2">
          <mxGeometry width="160" relative="1" as="geometry">
            <mxPoint x="270" y="471" as="sourcePoint" />
            <mxPoint x="430" y="471" as="targetPoint" />
          </mxGeometry>
        </mxCell>
        <mxCell id="-ynEkc6PMeDTSdzCZtb5-62" value="" style="html=1;verticalAlign=bottom;endArrow=open;dashed=1;endSize=8;curved=0;rounded=0;strokeColor=light-dark(#000000,#000000);" edge="1" parent="1">
          <mxGeometry relative="1" as="geometry">
            <mxPoint x="376.22" y="479" as="sourcePoint" />
            <mxPoint x="245" y="479" as="targetPoint" />
          </mxGeometry>
        </mxCell>
        <mxCell id="-ynEkc6PMeDTSdzCZtb5-63" value="&lt;font style=&quot;color: light-dark(rgb(0, 0, 0), rgb(0, 0, 0)); font-size: 9px;&quot;&gt;Message d&#39;erreur&lt;/font&gt;" style="text;html=1;align=center;verticalAlign=middle;whiteSpace=wrap;rounded=0;" vertex="1" parent="1">
          <mxGeometry x="278" y="463" width="74" height="17" as="geometry" />
        </mxCell>
        <mxCell id="-ynEkc6PMeDTSdzCZtb5-65" value="" style="line;strokeWidth=1;fillColor=none;align=left;verticalAlign=middle;spacingTop=-1;spacingLeft=3;spacingRight=3;rotatable=0;labelPosition=right;points=[];portConstraint=eastwest;strokeColor=light-dark(#000000,#000000);dashed=1;" vertex="1" parent="1">
          <mxGeometry x="144" y="510" width="554" height="8" as="geometry" />
        </mxCell>
        <mxCell id="-ynEkc6PMeDTSdzCZtb5-66" value="&lt;font style=&quot;color: light-dark(rgb(0, 0, 0), rgb(0, 0, 0)); font-size: 10px;&quot;&gt;[Else]&amp;nbsp;&lt;/font&gt;" style="text;html=1;align=center;verticalAlign=middle;whiteSpace=wrap;rounded=0;" vertex="1" parent="1">
          <mxGeometry x="143" y="494" width="44" height="19" as="geometry" />
        </mxCell>
        <mxCell id="-ynEkc6PMeDTSdzCZtb5-72" value="" style="html=1;verticalAlign=bottom;endArrow=open;dashed=1;endSize=8;curved=0;rounded=0;strokeColor=light-dark(#000000,#000000);" edge="1" parent="1">
          <mxGeometry relative="1" as="geometry">
            <mxPoint x="382" y="545" as="sourcePoint" />
            <mxPoint x="243" y="545" as="targetPoint" />
          </mxGeometry>
        </mxCell>
        <mxCell id="-ynEkc6PMeDTSdzCZtb5-73" value="&lt;font style=&quot;color: light-dark(rgb(0, 0, 0), rgb(0, 0, 0)); font-size: 9px;&quot;&gt;Espace de réservation&lt;/font&gt;" style="text;html=1;align=center;verticalAlign=middle;whiteSpace=wrap;rounded=0;" vertex="1" parent="1">
          <mxGeometry x="270.64" y="525" width="94.36" height="17" as="geometry" />
        </mxCell>
        <mxCell id="-ynEkc6PMeDTSdzCZtb5-74" value="" style="endArrow=block;endFill=1;endSize=12;html=1;rounded=0;strokeColor=light-dark(#000000,#000000);" edge="1" parent="1">
          <mxGeometry width="160" relative="1" as="geometry">
            <mxPoint x="244" y="580" as="sourcePoint" />
            <mxPoint x="383.5" y="580" as="targetPoint" />
          </mxGeometry>
        </mxCell>
        <mxCell id="-ynEkc6PMeDTSdzCZtb5-75" value="" style="endArrow=open;endFill=1;endSize=12;html=1;rounded=0;" edge="1" parent="1" source="aM9ryv3xv72pqoxQDRHE-1" target="-ynEkc6PMeDTSdzCZtb5-41">
          <mxGeometry width="160" relative="1" as="geometry">
            <mxPoint x="386" y="379" as="sourcePoint" />
            <mxPoint x="237" y="379" as="targetPoint" />
          </mxGeometry>
        </mxCell>
        <mxCell id="-ynEkc6PMeDTSdzCZtb5-41" value="&lt;font style=&quot;color: light-dark(rgb(0, 0, 0), rgb(0, 0, 0)); font-size: 9px;&quot;&gt;&lt;b style=&quot;&quot;&gt;S&#39;authentifier&lt;/b&gt;&lt;/font&gt;" style="text;html=1;align=center;verticalAlign=middle;whiteSpace=wrap;rounded=0;" vertex="1" parent="1">
          <mxGeometry x="236" y="370" width="129" height="18" as="geometry" />
        </mxCell>
        <mxCell id="-ynEkc6PMeDTSdzCZtb5-76" value="&lt;font style=&quot;color: light-dark(rgb(0, 0, 0), rgb(0, 0, 0)); font-size: 9px;&quot;&gt;Effectuer un payement&lt;/font&gt;" style="text;html=1;align=center;verticalAlign=middle;whiteSpace=wrap;rounded=0;" vertex="1" parent="1">
          <mxGeometry x="265.64" y="564" width="94.36" height="17" as="geometry" />
        </mxCell>
        <mxCell id="-ynEkc6PMeDTSdzCZtb5-80" value="" style="endArrow=block;endFill=1;endSize=12;html=1;rounded=0;strokeColor=light-dark(#000000,#000000);" edge="1" parent="1">
          <mxGeometry width="160" relative="1" as="geometry">
            <mxPoint x="390.5" y="581" as="sourcePoint" />
            <mxPoint x="637.5000000000002" y="581" as="targetPoint" />
          </mxGeometry>
        </mxCell>
        <mxCell id="-ynEkc6PMeDTSdzCZtb5-81" value="&lt;font style=&quot;color: light-dark(rgb(0, 0, 0), rgb(0, 0, 0)); font-size: 9px;&quot;&gt;Initie le payement&lt;/font&gt;" style="text;html=1;align=center;verticalAlign=middle;whiteSpace=wrap;rounded=0;" vertex="1" parent="1">
          <mxGeometry x="409" y="564" width="94.36" height="17" as="geometry" />
        </mxCell>
        <mxCell id="-ynEkc6PMeDTSdzCZtb5-82" value="" style="html=1;verticalAlign=bottom;endArrow=open;dashed=1;endSize=8;curved=0;rounded=0;strokeColor=light-dark(#000000,#000000);" edge="1" parent="1">
          <mxGeometry relative="1" as="geometry">
            <mxPoint x="635.5000000000002" y="606.9999999999999" as="sourcePoint" />
            <mxPoint x="395" y="607" as="targetPoint" />
          </mxGeometry>
        </mxCell>
        <mxCell id="-ynEkc6PMeDTSdzCZtb5-83" value="&lt;font style=&quot;color: light-dark(rgb(0, 0, 0), rgb(0, 0, 0)); font-size: 9px;&quot;&gt;Confirmation paiement&lt;/font&gt;" style="text;html=1;align=center;verticalAlign=middle;whiteSpace=wrap;rounded=0;" vertex="1" parent="1">
          <mxGeometry x="406" y="588" width="94.36" height="17" as="geometry" />
        </mxCell>
        <mxCell id="-ynEkc6PMeDTSdzCZtb5-84" value="" style="html=1;verticalAlign=bottom;endArrow=open;dashed=1;endSize=8;curved=0;rounded=0;strokeColor=light-dark(#000000,#000000);" edge="1" parent="1">
          <mxGeometry relative="1" as="geometry">
            <mxPoint x="377" y="612" as="sourcePoint" />
            <mxPoint x="245" y="612" as="targetPoint" />
          </mxGeometry>
        </mxCell>
        <mxCell id="-ynEkc6PMeDTSdzCZtb5-85" value="&lt;font style=&quot;color: light-dark(rgb(0, 0, 0), rgb(0, 0, 0)); font-size: 9px;&quot;&gt;Réservation réussie&lt;/font&gt;" style="text;html=1;align=center;verticalAlign=middle;whiteSpace=wrap;rounded=0;" vertex="1" parent="1">
          <mxGeometry x="263.91999999999996" y="593" width="94.36" height="17" as="geometry" />
        </mxCell>
      </root>
    </mxGraphModel>
  </diagram>
</mxfile>
